<svg  viewBox="0 0 24 24"  xmlns="http://www.w3.org/2000/svg"><path d="M3 3a2 2 0 0 1 2-2h9.586a1 1 0 0 1 .707.293l5.414 5.414a1 1 0 0 1 .293.707V21a2 2 0 0 1-2 2H5a2 2 0 0 1-2-2V3Z" fill="#FFC60A"></path><path opacity="0.6" d="M15 1.483a.2.2 0 0 1 .341-.142L20.66 6.66a.2.2 0 0 1-.142.341H17a2 2 0 0 1-2-2V1.483Z" fill="#DC9B04"></path><path d="M8.372 10a1 1 0 0 0-1 1v.182a1 1 0 0 0 1 1h.181a1 1 0 0 0 1-1V11a1 1 0 0 0-1-1h-.181Zm8.323 2.76a.6.6 0 0 1 1.04.408V18.5a.5.5 0 0 1-.5.5H7.401a.4.4 0 0 1-.307-.657l2.926-3.49a1 1 0 0 1 1.532 0l1.523 1.816 3.62-3.91Z" fill="#fff"></path></svg>