<svg  viewBox="0 0 24 24"  xmlns="http://www.w3.org/2000/svg"><path d="M3 3a2 2 0 0 1 2-2h9.586a1 1 0 0 1 .707.293l5.414 5.414a1 1 0 0 1 .293.707V21a2 2 0 0 1-2 2H5a2 2 0 0 1-2-2V3Z" fill="#8F959E"></path><path opacity="0.6" d="M15 1.483a.2.2 0 0 1 .341-.142L20.66 6.66a.2.2 0 0 1-.142.341H17a2 2 0 0 1-2-2V1.483Z" fill="#646A73"></path><path d="M14.288 9.864c-.546-.517-1.262-.773-2.153-.773-1 0-1.784.32-2.353.974-.48.562-.74 1.1-.777 1.948l-.003.1a.248.248 0 0 0 .25.25h.59a.252.252 0 0 0 .252-.248l.002-.096c.03-.586.182-.893.455-1.234.344-.46.85-.685 1.543-.685.62 0 1.084.158 1.404.478.305.318.465.751.465 1.295 0 .37-.135.724-.408 1.075-.087.109-.213.238-.616.642-.638.557-1.032 1.011-1.24 1.457a2.55 2.55 0 0 0-.258 1.148v.282c0 .138.112.25.25.25h.605a.25.25 0 0 0 .25-.25v-.282c0-.354.087-.671.267-.98.136-.23.31-.411.612-.676.607-.55.944-.877 1.095-1.069a2.638 2.638 0 0 0 .547-1.625c0-.827-.26-1.49-.779-1.98Zm-2.583 7.954a.25.25 0 0 0-.25.25v.591c0 .138.112.25.25.25h.59a.25.25 0 0 0 .25-.25v-.59a.25.25 0 0 0-.25-.25h-.59Z" fill="#fff"></path></svg>