<svg width="1em" height="1em" viewBox="0 0 24 24" fill="none" xmlns="http://www.w3.org/2000/svg"><path d="M3 3a2 2 0 0 1 2-2h9.586a1 1 0 0 1 .707.293l5.414 5.414a1 1 0 0 1 .293.707V21a2 2 0 0 1-2 2H5a2 2 0 0 1-2-2V3Z" fill="#3370FF"></path><path opacity="0.7" d="M15 1.483a.2.2 0 0 1 .341-.142L20.66 6.66a.2.2 0 0 1-.142.341H17a2 2 0 0 1-2-2V1.483Z" fill="#245BDB"></path><path d="M7 10.75a.75.75 0 0 1 .75-.75H13a.75.75 0 0 1 .75.75v.89l1.132-.636a.75.75 0 0 1 1.118.653v3.436a.75.75 0 0 1-1.118.653l-1.132-.637V16a.75.75 0 0 1-.75.75H7.75A.75.75 0 0 1 7 16v-5.25ZM9.25 13a.75.75 0 1 0 0-1.5.75.75 0 0 0 0 1.5Z" fill="#fff"></path></svg>