<svg  viewBox="0 0 24 24"  xmlns="http://www.w3.org/2000/svg"><path d="M3 3a2 2 0 0 1 2-2h9.586a1 1 0 0 1 .707.293l5.414 5.414a1 1 0 0 1 .293.707V21a2 2 0 0 1-2 2H5a2 2 0 0 1-2-2V3Z" fill="#F54A45"></path><path d="M15 1.483a.2.2 0 0 1 .341-.142L20.66 6.66a.2.2 0 0 1-.142.341H17a2 2 0 0 1-2-2V1.483Z" fill="#D83931"></path><path d="M17.55 15.551c-.247-.29-.756-.432-1.555-.432-.464 0-1.104.012-1.747.107-1.755-1.265-2.167-2.625-2.167-2.625s.3-.753.319-1.982c.012-.777-.111-1.357-.425-1.606a.883.883 0 0 0-.524-.195.7.7 0 0 0-.413.13c-.913.658.084 3.762.11 3.845a27.6 27.6 0 0 1-1.531 3.125c-.182.316-.182.322-.304.466 0 0-1.597.792-2.347 1.67-.423.497-.437.838-.414 1.093.036.307.427.58.82.58l.048-.001c.4-.024.844-.134 1.339-.602.358-.339.76-1.258 1.278-2.158 1.485-.417 2.792-.713 3.887-.883.803.427 1.998.91 2.811.91.273 0 .493-.056.653-.164.191-.13.272-.29.323-.589.05-.298-.02-.525-.16-.689Zm-1.745.467c.742 0 1.143.131 1.35.241.063.034.11.067.142.094-.058.045-.172.102-.379.102-.342 0-.792-.145-1.34-.433.077-.002.153-.004.227-.004Zm-4.26-6.542.002-.003c.116.085.17.684.16 1.031-.016.466-.019.646-.078.933-.158-.597-.17-1.67-.083-1.961Zm.037 4.36c.362.596.82 1.2 1.338 1.66-1.01.217-1.847.415-2.45.626a18.647 18.647 0 0 0 1.112-2.285ZM7.51 18.885c.092-.134.341-.396.974-.902-.34.782-.721.902-1.075 1.09.026-.061.06-.126.101-.188Z" fill="#fff"></path></svg>