<svg  viewBox="0 0 24 24"  xmlns="http://www.w3.org/2000/svg"><path d="M3 3a2 2 0 0 1 2-2h9.586a1 1 0 0 1 .707.293l5.414 5.414a1 1 0 0 1 .293.707V21a2 2 0 0 1-2 2H5a2 2 0 0 1-2-2V3Z" fill="#34C724"></path><path opacity="0.5" d="M15 1.483a.2.2 0 0 1 .341-.142L20.66 6.66a.2.2 0 0 1-.142.341H17a2 2 0 0 1-2-2V1.483Z" fill="#2EA121"></path><path d="M8.547 9.91h1.091c.049 0 .094.023.122.063l2.098 3.041 2.11-3.041a.147.147 0 0 1 .121-.064h1.092a.147.147 0 0 1 .12.233l-2.733 3.834 2.95 4.155a.147.147 0 0 1-.12.233h-1.092a.147.147 0 0 1-.121-.064l-2.327-3.363L9.543 18.3a.147.147 0 0 1-.122.064H8.33a.147.147 0 0 1-.12-.232l2.928-4.156-2.71-3.835a.147.147 0 0 1 .12-.232Z" fill="#fff"></path></svg>