<svg  viewBox="0 0 24 24"  xmlns="http://www.w3.org/2000/svg"><path d="M3 3a2 2 0 0 1 2-2h9.586a1 1 0 0 1 .707.293l5.414 5.414a1 1 0 0 1 .293.707V21a2 2 0 0 1-2 2H5a2 2 0 0 1-2-2V3Z" fill="#F80"></path><path opacity="0.5" d="m15 1 6 6h-4a2 2 0 0 1-2-2V1Z" fill="#DE7802"></path><path d="M10.383 18.495V14.91h1.702a6.97 6.97 0 0 0 1.22-.108 3.484 3.484 0 0 0 1.11-.386 2.3 2.3 0 0 0 .814-.77c.212-.329.316-.742.316-1.236a3.3 3.3 0 0 0-.131-.937c-.09-.307-.25-.58-.48-.815-.228-.236-.536-.42-.921-.552-.382-.131-.86-.196-1.436-.196H9.414a.141.141 0 0 0-.141.141v8.445c0 .078.063.142.141.142h.828a.141.141 0 0 0 .141-.142Zm2.735-4.622a6.67 6.67 0 0 1-1.01.069h-1.725v-3.066h1.966c.746 0 1.282.13 1.608.38.319.245.478.605.478 1.094 0 .339-.054.608-.158.809-.104.2-.25.355-.439.47-.194.119-.434.2-.72.244Z" fill="#fff"></path></svg>