<svg width="1em" height="1em" viewBox="0 0 24 24" fill="none" xmlns="http://www.w3.org/2000/svg"><path d="M3 3a2 2 0 0 1 2-2h9.586a1 1 0 0 1 .707.293l5.414 5.414a1 1 0 0 1 .293.707V21a2 2 0 0 1-2 2H5a2 2 0 0 1-2-2V3Z" fill="#3370FF"></path><path opacity="0.7" d="M15 1.483a.2.2 0 0 1 .341-.142L20.66 6.66a.2.2 0 0 1-.142.341H17a2 2 0 0 1-2-2V1.483Z" fill="#245BDB"></path><path d="m10.297 11.476-2.527 2.66 2.527 2.66a.247.247 0 0 1-.004.342l-.001.001-.34.338a.23.23 0 0 1-.33-.004l-3.01-3.168a.247.247 0 0 1 0-.338l3.01-3.167a.23.23 0 0 1 .33-.005l.34.338a.247.247 0 0 1 .006.342l-.001.001Zm6.02 2.66-2.346-2.66a.26.26 0 0 1 .004-.342l.316-.339a.203.203 0 0 1 .307.005l2.794 3.167a.261.261 0 0 1 0 .338l-2.794 3.168a.203.203 0 0 1-.307.004l-.316-.338a.26.26 0 0 1-.005-.342h.001l2.347-2.66ZM12.63 9.092l.491.053c.135.014.23.127.215.252l-1.174 9.311c-.015.125-.137.214-.27.2l-.493-.053c-.134-.015-.23-.127-.215-.252l1.174-9.312c.016-.124.137-.213.272-.199Z" fill="#fff"></path></svg>